<mxfile host="65bd71144e">
    <diagram id="nOYtinQIznfe_9wZHrz_" name="Page-1">
        <mxGraphModel dx="795" dy="761" grid="1" gridSize="10" guides="1" tooltips="1" connect="1" arrows="1" fold="1" page="1" pageScale="1" pageWidth="850" pageHeight="1100" math="0" shadow="0">
            <root>
                <mxCell id="0"/>
                <mxCell id="1" parent="0"/>
                <mxCell id="13" value="" style="ellipse;whiteSpace=wrap;html=1;fontSize=14;fillColor=#d0cee2;strokeColor=#56517e;" vertex="1" parent="1">
                    <mxGeometry x="400" y="77.5" width="340" height="160" as="geometry"/>
                </mxCell>
                <mxCell id="2" value="" style="rounded=0;whiteSpace=wrap;html=1;fillColor=#d0cee2;strokeColor=#56517e;" vertex="1" parent="1">
                    <mxGeometry x="80" y="80" width="200" height="280" as="geometry"/>
                </mxCell>
                <mxCell id="3" value="&lt;font style=&quot;font-size: 18px;&quot;&gt;Virus analysis machine&lt;/font&gt;" style="text;html=1;strokeColor=none;fillColor=none;align=center;verticalAlign=middle;whiteSpace=wrap;rounded=0;" vertex="1" parent="1">
                    <mxGeometry x="210" y="110" width="60" height="30" as="geometry"/>
                </mxCell>
                <mxCell id="7" style="edgeStyle=none;html=1;entryX=0.5;entryY=0;entryDx=0;entryDy=0;fontSize=18;" edge="1" parent="1" source="4" target="5">
                    <mxGeometry relative="1" as="geometry"/>
                </mxCell>
                <mxCell id="4" value="3a" style="rounded=0;whiteSpace=wrap;html=1;fontSize=18;" vertex="1" parent="1">
                    <mxGeometry x="100" y="110" width="90" height="60" as="geometry"/>
                </mxCell>
                <mxCell id="8" style="edgeStyle=none;html=1;entryX=0.5;entryY=0;entryDx=0;entryDy=0;fontSize=18;" edge="1" parent="1" source="5" target="6">
                    <mxGeometry relative="1" as="geometry"/>
                </mxCell>
                <mxCell id="5" value="3b" style="rounded=0;whiteSpace=wrap;html=1;fontSize=18;" vertex="1" parent="1">
                    <mxGeometry x="100" y="200" width="90" height="60" as="geometry"/>
                </mxCell>
                <mxCell id="12" value="7" style="edgeStyle=none;html=1;exitX=1;exitY=0.75;exitDx=0;exitDy=0;entryX=0.25;entryY=0;entryDx=0;entryDy=0;fontSize=14;" edge="1" parent="1" source="6" target="11">
                    <mxGeometry relative="1" as="geometry"/>
                </mxCell>
                <mxCell id="27" value="4" style="edgeStyle=none;html=1;exitX=1;exitY=0.25;exitDx=0;exitDy=0;entryX=0;entryY=0.75;entryDx=0;entryDy=0;fontSize=14;" edge="1" parent="1" source="6" target="15">
                    <mxGeometry relative="1" as="geometry"/>
                </mxCell>
                <mxCell id="36" style="edgeStyle=none;html=1;exitX=1;exitY=0.75;exitDx=0;exitDy=0;entryX=0;entryY=0.5;entryDx=0;entryDy=0;fontSize=14;" edge="1" parent="1" source="6" target="32">
                    <mxGeometry relative="1" as="geometry"/>
                </mxCell>
                <mxCell id="6" value="3c" style="rounded=0;whiteSpace=wrap;html=1;fontSize=18;" vertex="1" parent="1">
                    <mxGeometry x="100" y="290" width="90" height="60" as="geometry"/>
                </mxCell>
                <mxCell id="9" value="" style="endArrow=classic;html=1;fontSize=18;entryX=0.5;entryY=0;entryDx=0;entryDy=0;exitX=0.324;exitY=0.002;exitDx=0;exitDy=0;exitPerimeter=0;" edge="1" parent="1" source="2" target="4">
                    <mxGeometry width="50" height="50" relative="1" as="geometry">
                        <mxPoint x="300" y="80" as="sourcePoint"/>
                        <mxPoint x="350" y="30" as="targetPoint"/>
                    </mxGeometry>
                </mxCell>
                <mxCell id="10" value="&lt;font style=&quot;font-size: 14px;&quot;&gt;3&lt;/font&gt;" style="text;html=1;strokeColor=none;fillColor=none;align=center;verticalAlign=middle;whiteSpace=wrap;rounded=0;fontSize=18;" vertex="1" parent="1">
                    <mxGeometry x="130" y="80" width="60" height="30" as="geometry"/>
                </mxCell>
                <mxCell id="11" value="Individual user" style="rounded=0;whiteSpace=wrap;html=1;fontSize=14;" vertex="1" parent="1">
                    <mxGeometry x="240" y="440" width="100" height="40" as="geometry"/>
                </mxCell>
                <mxCell id="14" value="&lt;font style=&quot;font-size: 18px;&quot;&gt;Private network&lt;/font&gt;" style="text;html=1;strokeColor=none;fillColor=none;align=center;verticalAlign=middle;whiteSpace=wrap;rounded=0;" vertex="1" parent="1">
                    <mxGeometry x="460" y="182.5" width="60" height="30" as="geometry"/>
                </mxCell>
                <mxCell id="19" value="5" style="edgeStyle=none;html=1;exitX=1;exitY=0.75;exitDx=0;exitDy=0;entryX=0;entryY=0.75;entryDx=0;entryDy=0;fontSize=14;" edge="1" parent="1" source="15" target="16">
                    <mxGeometry relative="1" as="geometry"/>
                </mxCell>
                <mxCell id="23" style="edgeStyle=none;html=1;exitX=1;exitY=0.75;exitDx=0;exitDy=0;entryX=0.5;entryY=0;entryDx=0;entryDy=0;fontSize=14;" edge="1" parent="1" source="15" target="20">
                    <mxGeometry relative="1" as="geometry"/>
                </mxCell>
                <mxCell id="25" value="6" style="edgeStyle=none;html=1;exitX=1;exitY=0.75;exitDx=0;exitDy=0;entryX=0;entryY=0.5;entryDx=0;entryDy=0;fontSize=14;" edge="1" parent="1" source="15" target="21">
                    <mxGeometry relative="1" as="geometry"/>
                </mxCell>
                <mxCell id="26" style="edgeStyle=none;html=1;exitX=1;exitY=0.75;exitDx=0;exitDy=0;entryX=0;entryY=0.75;entryDx=0;entryDy=0;fontSize=14;" edge="1" parent="1" source="15" target="22">
                    <mxGeometry relative="1" as="geometry"/>
                </mxCell>
                <mxCell id="42" value="2" style="edgeStyle=none;html=1;exitX=0;exitY=0.5;exitDx=0;exitDy=0;entryX=1;entryY=0.25;entryDx=0;entryDy=0;fontSize=14;" edge="1" parent="1" source="15" target="2">
                    <mxGeometry relative="1" as="geometry"/>
                </mxCell>
                <mxCell id="15" value="Administrative machine" style="rounded=0;whiteSpace=wrap;html=1;fontSize=14;" vertex="1" parent="1">
                    <mxGeometry x="425" y="72.5" width="120" height="90" as="geometry"/>
                </mxCell>
                <mxCell id="18" value="1" style="edgeStyle=none;html=1;exitX=0;exitY=0.25;exitDx=0;exitDy=0;entryX=1;entryY=0.25;entryDx=0;entryDy=0;fontSize=14;" edge="1" parent="1" source="16" target="15">
                    <mxGeometry relative="1" as="geometry"/>
                </mxCell>
                <mxCell id="16" value="Virus-infected client machine" style="rounded=0;whiteSpace=wrap;html=1;fontSize=14;fillColor=#647687;fontColor=#ffffff;strokeColor=#314354;" vertex="1" parent="1">
                    <mxGeometry x="590" y="12.5" width="80" height="90" as="geometry"/>
                </mxCell>
                <mxCell id="20" value="Client machine" style="rounded=0;whiteSpace=wrap;html=1;fontSize=14;" vertex="1" parent="1">
                    <mxGeometry x="545" y="180" width="75" height="45" as="geometry"/>
                </mxCell>
                <mxCell id="21" value="Client machine" style="rounded=0;whiteSpace=wrap;html=1;fontSize=14;" vertex="1" parent="1">
                    <mxGeometry x="630" y="152.5" width="75" height="45" as="geometry"/>
                </mxCell>
                <mxCell id="22" value="Client machine" style="rounded=0;whiteSpace=wrap;html=1;fontSize=14;" vertex="1" parent="1">
                    <mxGeometry x="690" y="97.5" width="75" height="45" as="geometry"/>
                </mxCell>
                <mxCell id="29" value="" style="ellipse;whiteSpace=wrap;html=1;fontSize=14;fillColor=#d0cee2;strokeColor=#56517e;" vertex="1" parent="1">
                    <mxGeometry x="480" y="280" width="260" height="140" as="geometry"/>
                </mxCell>
                <mxCell id="30" value="&lt;font style=&quot;font-size: 18px;&quot;&gt;Other private network&lt;/font&gt;" style="text;html=1;strokeColor=none;fillColor=none;align=center;verticalAlign=middle;whiteSpace=wrap;rounded=0;" vertex="1" parent="1">
                    <mxGeometry x="580" y="370" width="60" height="30" as="geometry"/>
                </mxCell>
                <mxCell id="32" value="Administrative machine" style="rounded=0;whiteSpace=wrap;html=1;fontSize=14;" vertex="1" parent="1">
                    <mxGeometry x="510" y="280" width="120" height="50" as="geometry"/>
                </mxCell>
                <mxCell id="33" value="Client" style="rounded=0;whiteSpace=wrap;html=1;fontSize=14;" vertex="1" parent="1">
                    <mxGeometry x="660" y="290" width="60" height="30" as="geometry"/>
                </mxCell>
                <mxCell id="34" value="Client" style="rounded=0;whiteSpace=wrap;html=1;fontSize=14;" vertex="1" parent="1">
                    <mxGeometry x="660" y="350" width="60" height="30" as="geometry"/>
                </mxCell>
                <mxCell id="35" value="Client" style="rounded=0;whiteSpace=wrap;html=1;fontSize=14;" vertex="1" parent="1">
                    <mxGeometry x="510" y="360" width="60" height="30" as="geometry"/>
                </mxCell>
                <mxCell id="37" value="" style="ellipse;whiteSpace=wrap;html=1;aspect=fixed;fontSize=14;fillColor=none;strokeColor=#FF0000;strokeWidth=3;" vertex="1" parent="1">
                    <mxGeometry x="130" y="305" width="30" height="30" as="geometry"/>
                </mxCell>
                <mxCell id="38" value="" style="ellipse;whiteSpace=wrap;html=1;aspect=fixed;fontSize=14;fillColor=none;strokeColor=#FF0000;strokeWidth=3;" vertex="1" parent="1">
                    <mxGeometry x="130" y="215" width="30" height="30" as="geometry"/>
                </mxCell>
                <mxCell id="40" value="" style="ellipse;whiteSpace=wrap;html=1;aspect=fixed;fontSize=14;fillColor=none;strokeColor=#FF0000;strokeWidth=3;" vertex="1" parent="1">
                    <mxGeometry x="130" y="125" width="30" height="30" as="geometry"/>
                </mxCell>
                <mxCell id="41" value="" style="ellipse;whiteSpace=wrap;html=1;aspect=fixed;fontSize=14;fillColor=none;strokeColor=#FF0000;strokeWidth=3;" vertex="1" parent="1">
                    <mxGeometry x="570" y="140" width="30" height="30" as="geometry"/>
                </mxCell>
            </root>
        </mxGraphModel>
    </diagram>
</mxfile>
